<?xml version="1.0" encoding="utf-8"?>
<!-- Generator: Adobe Illustrator 25.0.1, SVG Export Plug-In . SVG Version: 6.00 Build 0)  -->
<svg version="1.1" xmlns="http://www.w3.org/2000/svg" xmlns:xlink="http://www.w3.org/1999/xlink" x="0px" y="0px"
	 viewBox="0 0 834 192" style="enable-background:new 0 0 834 192;" xml:space="preserve">
<style type="text/css">
	.st0{display:none;}
	.st1{display:inline;}
	.st2{fill:#FD402B;}
	.st3{display:inline;fill:#FD402B;}
	.st4{fill:none;stroke:#FD402B;stroke-width:3;stroke-linecap:round;stroke-miterlimit:10;}
</style>
<g id="Abstände" class="st0">
	<g id="Abstand_x5F_Wort-Bildmarke" class="st1">
		<circle id="Abstand_x5F_32_4_" class="st2" cx="96" cy="176" r="16"/>
		<circle id="Abstand_x5F_32_5_" class="st2" cx="16" cy="96" r="16"/>
		<circle id="Abstand_x5F_32_6_" class="st2" cx="96" cy="16" r="16"/>
		<circle id="Abstand_x5F_32_7_" class="st2" cx="176" cy="96" r="16"/>
		<circle id="Abstand_x5F_32_8_" class="st2" cx="818" cy="96" r="16"/>
	</g>
</g>
<g id="Ebene_1">
	<g>
		<g>
			<path class="st2" d="M408,70c-17.7,0-32,14.3-32,32c0,17.7,14.3,32,32,32s32-14.3,32-32C440,84.3,425.7,70,408,70z M408,122
				c-11,0-20-9-20-20s9-20,20-20s20,9,20,20S419,122,408,122z"/>
		</g>
		<path id="Pfad_227_4_" class="st2" d="M605.7,120.4c0,0-0.1-0.1-0.1-0.1c-3.1-3-8.1-3-11.2,0.1c0,0,0,0,0,0
			c-0.7,0.7-1.3,1.6-1.8,2.6c-0.4,1-0.6,2-0.6,3.1c0,1.1,0.2,2.1,0.6,3.1c0.4,0.9,1,1.8,1.8,2.5l0,0c0,0,0.1,0.1,0.1,0.1
			c3.1,3,8.2,3,11.2-0.2c2.2-2.3,2.9-5.7,1.6-8.6C607,122,606.4,121.1,605.7,120.4z"/>
		<path class="st2" d="M224,70c3.3,0,6,2.7,6,6s-2.7,6-6,6c-11,0-20,9-20,20v26c0,3.3-2.7,6-6,6s-6-2.7-6-6v-26
			C192,84.3,206.3,70,224,70z"/>
		<path class="st2" d="M294,108c3.3,0,6-2.7,6-6c0-17.7-14.3-32-32-32s-32,14.3-32,32c0,17.7,14.3,32,32,32c4.4,0,8.5-0.9,12.3-2.5
			c3.1-1.3,4.5-4.8,3.2-7.8c-1.3-3.1-4.8-4.5-7.8-3.2c-2.4,1-5,1.5-7.7,1.5c-8.9,0-16.5-5.9-19.1-14H294z M248.9,96
			c2.6-8.1,10.1-14,19.1-14s16.5,5.9,19.1,14H248.9z"/>
		<path class="st2" d="M582,108c3.3,0,6-2.7,6-6c0-17.7-14.3-32-32-32s-32,14.3-32,32c0,17.7,14.3,32,32,32c4.4,0,8.5-0.9,12.3-2.5
			c3.1-1.3,4.5-4.8,3.2-7.8c-1.3-3.1-4.8-4.5-7.8-3.2c-2.4,1-5,1.5-7.7,1.5c-8.9,0-16.5-5.9-19.1-14H582z M536.9,96
			c2.6-8.1,10.1-14,19.1-14s16.5,5.9,19.1,14H536.9z"/>
		<path class="st2" d="M356.5,88.2c-3.6-3.9-8.8-6.2-14.5-6.2c-11,0-20,9-20,20s9,20,20,20c5.7,0,10.9-2.4,14.5-6.2
			c2.3-2.3,6.1-2.3,8.5,0c2.3,2.3,2.3,6.1,0,8.5c-5.8,6-14,9.8-23,9.8c-17.7,0-32-14.3-32-32s14.3-32,32-32c9,0,17.2,3.7,23,9.8
			c2.3,2.3,2.3,6.1,0,8.5C362.7,90.6,358.9,90.6,356.5,88.2z"/>
		<path class="st2" d="M508,50c-3.3,0-6,2.7-6,6v21c-5.5-4.4-12.4-7-20-7c-17.7,0-32,14.3-32,32c0,17.7,14.3,32,32,32
			c12.6,0,23.5-7.3,28.7-17.8c2.1-4.3,3.3-9.1,3.3-14.2V56C514,52.7,511.3,50,508,50z M482,122c-11,0-20-9-20-20s9-20,20-20
			s20,9,20,20S493,122,482,122z"/>
		<path class="st2" d="M648,134c-17.7,0-32-14.3-32-32V56c0-3.3,2.7-6,6-6s6,2.7,6,6v46c0,11,9,20,20,20c3.3,0,6,2.7,6,6
			S651.3,134,648,134z"/>
		<path class="st2" d="M716,70c-3.3,0-6,2.7-6,6v1c-5.5-4.4-12.4-7-20-7c-17.7,0-32,14.3-32,32c0,17.7,14.3,32,32,32
			c7.6,0,14.5-2.6,20-7v1c0,3.3,2.7,6,6,6s6-2.7,6-6V76C722,72.7,719.3,70,716,70z M690,122c-11,0-20-9-20-20s9-20,20-20s20,9,20,20
			S701,122,690,122z"/>
		<path class="st2" d="M796,70c-3.3,0-6,2.7-6,6v38c0,4.4-3.6,8-8,8s-8-3.6-8-8V76c0-3.3-2.7-6-6-6s-6,2.7-6,6v38c0,4.4-3.6,8-8,8
			s-8-3.6-8-8V76c0-3.3-2.7-6-6-6s-6,2.7-6,6v38c0,11,9,20,20,20c5.5,0,10.4-2.2,14-5.7c3.6,3.5,8.5,5.7,14,5.7c11,0,20-9,20-20V76
			C802,72.7,799.3,70,796,70z"/>
	</g>
	<g>
		<path class="st2" d="M109.9,97.4c-3.6-3.1-8.7-5.2-14.4-6c-6.8-0.9-13-3.4-17.6-7.2c-0.1,0.4-0.2,0.8-0.3,1.2
			c-0.4,3,1.2,6.2,4.4,9c3.6,3.1,8.7,5.2,14.4,6c6.8,0.9,13,3.4,17.6,7.2c0.1-0.4,0.2-0.8,0.3-1.2
			C114.7,103.4,113.1,100.2,109.9,97.4z"/>
		<path class="st2" d="M96,32c-35.3,0-64,28.7-64,64c0,35.3,28.7,64,64,64c35.3,0,64-28.7,64-64C160,60.7,131.3,32,96,32z M72,131.5
			c-1.3,0-2.5-0.7-3.1-2c-0.9-1.7-0.1-3.8,1.6-4.7l9.7-4.8l-9.7-5c-1.7-0.9-2.4-3-1.5-4.7c0.9-1.7,3-2.4,4.7-1.5l15.9,8.1
			c1.2,0.6,1.9,1.8,1.9,3.1c0,1.3-0.8,2.5-2,3.1l-16,7.9C73,131.4,72.5,131.5,72,131.5z M121.2,123.3c-1.2,9.6-11.6,16.2-24.7,16.2
			c-1.7,0-3.4-0.1-5.1-0.3c-1.5-0.2-2.9-0.5-4.3-0.8c-1.9-0.5-3-2.4-2.6-4.2c0.5-1.9,2.4-3,4.2-2.6c1.1,0.3,2.3,0.5,3.6,0.7
			c11,1.4,21.1-3.1,21.9-9.8c0.4-3-1.2-6.2-4.4-9c-3.6-3.1-8.7-5.2-14.4-6c-7-0.9-13.5-3.6-18.1-7.6c-5-4.4-7.4-9.8-6.7-15.2
			c0.3-2.1,1-4.1,2.2-6c-1.9-3.1-2.7-6.5-2.2-9.9c1.4-10.8,14.5-17.8,29.8-15.8c1.5,0.2,2.9,0.5,4.3,0.8c1.9,0.5,3,2.3,2.6,4.2
			c-0.5,1.9-2.4,3-4.2,2.6c-1.2-0.3-2.4-0.5-3.6-0.7c-11-1.4-21.1,3.1-21.9,9.8c-0.4,3,1.2,6.2,4.4,9c3.6,3.1,8.7,5.2,14.4,6
			c7,0.9,13.5,3.6,18.1,7.6c5,4.4,7.4,9.8,6.7,15.2c-0.3,2.1-1,4.1-2.2,6C120.9,116.5,121.7,119.9,121.2,123.3z M123.1,81.5
			c-0.6,1.2-1.9,2-3.1,2c-0.5,0-1-0.1-1.5-0.4l-16-7.9c-1.2-0.6-1.9-1.8-2-3.1c0-1.3,0.7-2.5,1.9-3.1l15.9-8.1
			c1.7-0.9,3.8-0.2,4.7,1.5c0.9,1.7,0.2,3.8-1.5,4.7l-9.7,5l9.7,4.8C123.3,77.7,124,79.8,123.1,81.5z"/>
	</g>
</g>
</svg>
